# xmcd
#
# Track frame offsets: 
#        183
#        14263
#        27468
#        40998
#        54428
#        67568
#        81013
#        92385
#        104428
#        116420
#        130278
#        143618
#        155905
#        167188
#        179160
#        191115
#        202055
#        214575
#        228070
#        238998
#        252140
#        264613
#        276705
#        291248
#        305495
#        318265
#
# Disc length: 4412 seconds
#
# Revision: 13
# Processed by: cddbd v1.5.2PL0 Copyright (c) Steve Scherf et al.
# Submitted via: ExactAudioCopyFreeDBPlugin 1.0
#
DISCID=80113a1a
DTITLE=Various Artist - Atlantic Rhythm and Blues, 1947-1974
DYEAR=1991
DGENRE=Rhythm and Blues
TTITLE0=The Clovers - Ting-A-Ling
TTITLE1=Ruth Brown - Daddy Daddy
TTITLE2=Ray Charles - The Midnight Hour
TTITLE3=The Diamonds - A Beggar for Your Kisses
TTITLE4=Ruth Brown - Mama, He Treats Your Daughter Mean
TTITLE5=The Clovers - Good Lovin'
TTITLE6=Ruth Brown - Wild Wild Young Men
TTITLE7=Ray Charles - Mess Around
TTITLE8=Joe Turner - Honey Hush
TTITLE9=LaVern Baker - Soul on Fire
TTITLE10=Clyde McPhatter - Money Honey
TTITLE11=The Clovers - Lovey Dovey
TTITLE12=Clyde McPhatter - Such a Night
TTITLE13=Professor Longhair - Tipitina
TTITLE14=Clyde McPhatter - White Christmas
TTITLE15=Clyde McPhatter - Honey Love
TTITLE16=Clyde McPhatter - Whatcha Gonna Do
TTITLE17=Joe Turner - Shake, Rattle and Roll
TTITLE18=The Chords - Sh-Boom
TTITLE19=Ruth Brown - Oh, What a Dream
TTITLE20=Tommy Ridgley - Jam Up
TTITLE21=Al Hibbler - After the Lights Go Down Low
TTITLE22=LaVern Baker - Tomorrow Night
TTITLE23=LaVern Baker - Tweedle Dee
TTITLE24=Ray Charles - I Got a Woman
TTITLE25=Ray Charles - Greenbacks
EXTD=
EXTT0=
EXTT1=
EXTT2=
EXTT3=
EXTT4=
EXTT5=
EXTT6=
EXTT7=
EXTT8=
EXTT9=
EXTT10=
EXTT11=
EXTT12=
EXTT13=
EXTT14=
EXTT15=
EXTT16=
EXTT17=
EXTT18=
EXTT19=
EXTT20=
EXTT21=
EXTT22=
EXTT23=
EXTT24=
EXTT25=
PLAYORDER=
